# xmcd
#
# Track frame offsets: 
#        150
#        14839
#        33243
#        48641
#        70372
#        88777
#        107016
#        124747
#        138837
#
# Disc length: 2091 seconds
#
# Revision: 2
# Processed by: cddbd v1.5PL3 Copyright (c) Steve Scherf et al.
# Submitted via: ExactAudioCopy v0.90b4
#
DISCID=7d082909
DTITLE=Aaron Lines - Love Changes Everything
DYEAR=2001
DGENRE=Country
TTITLE0=Love Changes Everything
TTITLE1=Close
TTITLE2=Living Out Loud
TTITLE3=A Kiss Is Worth A Thousand Words
TTITLE4=Old Days New
TTITLE5=What Beautiful Is
TTITLE6=This Ain't Living
TTITLE7=Lost
TTITLE8=I Can Read Your Heart
EXTD=YEAR: 2001 ID3G:   2
EXTT0=
EXTT1=
EXTT2=
EXTT3=
EXTT4=
EXTT5=
EXTT6=
EXTT7=
EXTT8=
PLAYORDER=
